<mxfile host="app.diagrams.net" modified="2020-11-27T10:29:12.886Z" agent="5.0 (Macintosh; Intel Mac OS X 10_14_3) AppleWebKit/537.36 (KHTML, like Gecko) Chrome/86.0.4240.198 Safari/537.36" etag="iJLf9MGILe0-Yri9VV45" version="13.10.2" type="github">
  <diagram id="_-yG6WXE8SpCH9C6XkkC" name="Page-1">
    <mxGraphModel dx="2253" dy="771" grid="0" gridSize="10" guides="1" tooltips="1" connect="1" arrows="1" fold="1" page="1" pageScale="1" pageWidth="827" pageHeight="1169" math="0" shadow="0">
      <root>
        <mxCell id="0" />
        <mxCell id="1" parent="0" />
        <mxCell id="OMftC91fWA-DbwsZ1LiL-6" style="edgeStyle=orthogonalEdgeStyle;rounded=0;orthogonalLoop=1;jettySize=auto;html=1;exitX=1;exitY=0.5;exitDx=0;exitDy=0;curved=1;" edge="1" parent="1" source="OMftC91fWA-DbwsZ1LiL-1" target="OMftC91fWA-DbwsZ1LiL-3">
          <mxGeometry relative="1" as="geometry" />
        </mxCell>
        <mxCell id="OMftC91fWA-DbwsZ1LiL-1" value="Init" style="rounded=1;whiteSpace=wrap;html=1;fillColor=#dae8fc;strokeColor=#6c8ebf;" vertex="1" parent="1">
          <mxGeometry x="440" y="170" width="100" height="50" as="geometry" />
        </mxCell>
        <mxCell id="OMftC91fWA-DbwsZ1LiL-2" value="Component" style="rounded=0;whiteSpace=wrap;html=1;fillColor=#fff2cc;strokeColor=#d6b656;" vertex="1" parent="1">
          <mxGeometry x="360" y="240" width="170" height="90" as="geometry" />
        </mxCell>
        <mxCell id="OMftC91fWA-DbwsZ1LiL-7" style="edgeStyle=orthogonalEdgeStyle;curved=1;rounded=0;orthogonalLoop=1;jettySize=auto;html=1;entryX=1;entryY=0.5;entryDx=0;entryDy=0;" edge="1" parent="1" source="OMftC91fWA-DbwsZ1LiL-3" target="OMftC91fWA-DbwsZ1LiL-4">
          <mxGeometry relative="1" as="geometry">
            <Array as="points">
              <mxPoint x="600" y="390" />
            </Array>
          </mxGeometry>
        </mxCell>
        <mxCell id="OMftC91fWA-DbwsZ1LiL-3" value="Start" style="rounded=1;whiteSpace=wrap;html=1;fillColor=#dae8fc;strokeColor=#6c8ebf;" vertex="1" parent="1">
          <mxGeometry x="550" y="245" width="100" height="50" as="geometry" />
        </mxCell>
        <mxCell id="OMftC91fWA-DbwsZ1LiL-8" style="edgeStyle=orthogonalEdgeStyle;curved=1;rounded=0;orthogonalLoop=1;jettySize=auto;html=1;exitX=0;exitY=0.5;exitDx=0;exitDy=0;" edge="1" parent="1" source="OMftC91fWA-DbwsZ1LiL-4" target="OMftC91fWA-DbwsZ1LiL-5">
          <mxGeometry relative="1" as="geometry" />
        </mxCell>
        <mxCell id="OMftC91fWA-DbwsZ1LiL-4" value="Run" style="rounded=1;whiteSpace=wrap;html=1;fillColor=#dae8fc;strokeColor=#6c8ebf;" vertex="1" parent="1">
          <mxGeometry x="410" y="365" width="100" height="50" as="geometry" />
        </mxCell>
        <mxCell id="OMftC91fWA-DbwsZ1LiL-5" value="Stop" style="rounded=1;whiteSpace=wrap;html=1;fillColor=#dae8fc;strokeColor=#6c8ebf;" vertex="1" parent="1">
          <mxGeometry x="230" y="265" width="100" height="50" as="geometry" />
        </mxCell>
        <mxCell id="OMftC91fWA-DbwsZ1LiL-42" style="edgeStyle=orthogonalEdgeStyle;curved=1;rounded=0;orthogonalLoop=1;jettySize=auto;html=1;exitX=1;exitY=0.5;exitDx=0;exitDy=0;dashed=1;startArrow=none;startFill=0;endArrow=classic;endFill=1;strokeWidth=1;" edge="1" parent="1" source="OMftC91fWA-DbwsZ1LiL-10" target="OMftC91fWA-DbwsZ1LiL-35">
          <mxGeometry relative="1" as="geometry" />
        </mxCell>
        <mxCell id="OMftC91fWA-DbwsZ1LiL-10" value="reload" style="shape=process;whiteSpace=wrap;html=1;backgroundOutline=1;" vertex="1" parent="1">
          <mxGeometry x="-120" y="48" width="120" height="50" as="geometry" />
        </mxCell>
        <mxCell id="OMftC91fWA-DbwsZ1LiL-17" style="edgeStyle=orthogonalEdgeStyle;curved=1;rounded=0;orthogonalLoop=1;jettySize=auto;html=1;exitX=1;exitY=0.5;exitDx=0;exitDy=0;entryX=0;entryY=0.5;entryDx=0;entryDy=0;strokeWidth=1;" edge="1" parent="1" source="OMftC91fWA-DbwsZ1LiL-15" target="OMftC91fWA-DbwsZ1LiL-1">
          <mxGeometry relative="1" as="geometry" />
        </mxCell>
        <mxCell id="OMftC91fWA-DbwsZ1LiL-15" value="validate" style="rounded=1;whiteSpace=wrap;html=1;fillColor=#d5e8d4;strokeColor=#82b366;" vertex="1" parent="1">
          <mxGeometry x="310" y="175" width="80" height="40" as="geometry" />
        </mxCell>
        <mxCell id="OMftC91fWA-DbwsZ1LiL-22" style="rounded=0;orthogonalLoop=1;jettySize=auto;html=1;exitX=0.5;exitY=0;exitDx=0;exitDy=0;entryX=0.75;entryY=1;entryDx=0;entryDy=0;startArrow=none;startFill=0;strokeWidth=2;endArrow=none;endFill=0;fillColor=#d5e8d4;strokeColor=#82b366;" edge="1" parent="1" source="OMftC91fWA-DbwsZ1LiL-20" target="OMftC91fWA-DbwsZ1LiL-15">
          <mxGeometry relative="1" as="geometry" />
        </mxCell>
        <mxCell id="OMftC91fWA-DbwsZ1LiL-20" value="config" style="rounded=0;whiteSpace=wrap;html=1;fillColor=#d5e8d4;strokeColor=#82b366;" vertex="1" parent="1">
          <mxGeometry x="360" y="240" width="70" height="30" as="geometry" />
        </mxCell>
        <mxCell id="OMftC91fWA-DbwsZ1LiL-25" style="edgeStyle=orthogonalEdgeStyle;curved=1;rounded=0;orthogonalLoop=1;jettySize=auto;html=1;exitX=1;exitY=0.5;exitDx=0;exitDy=0;entryX=0;entryY=0.25;entryDx=0;entryDy=0;dashed=1;startArrow=none;startFill=0;endArrow=classic;endFill=1;strokeWidth=1;" edge="1" parent="1" source="OMftC91fWA-DbwsZ1LiL-23" target="OMftC91fWA-DbwsZ1LiL-15">
          <mxGeometry relative="1" as="geometry" />
        </mxCell>
        <mxCell id="OMftC91fWA-DbwsZ1LiL-34" value="所有pipeline下的component" style="edgeLabel;html=1;align=center;verticalAlign=middle;resizable=0;points=[];" vertex="1" connectable="0" parent="OMftC91fWA-DbwsZ1LiL-25">
          <mxGeometry x="-0.125" y="2" relative="1" as="geometry">
            <mxPoint as="offset" />
          </mxGeometry>
        </mxCell>
        <mxCell id="OMftC91fWA-DbwsZ1LiL-23" value="controller.start" style="shape=process;whiteSpace=wrap;html=1;backgroundOutline=1;" vertex="1" parent="1">
          <mxGeometry x="-120" y="155" width="120" height="60" as="geometry" />
        </mxCell>
        <mxCell id="OMftC91fWA-DbwsZ1LiL-26" value="组件component生命周期" style="text;html=1;strokeColor=none;fillColor=none;align=center;verticalAlign=middle;whiteSpace=wrap;rounded=0;" vertex="1" parent="1">
          <mxGeometry x="360" y="10" width="155" height="20" as="geometry" />
        </mxCell>
        <mxCell id="OMftC91fWA-DbwsZ1LiL-36" style="edgeStyle=orthogonalEdgeStyle;curved=1;rounded=0;orthogonalLoop=1;jettySize=auto;html=1;dashed=1;startArrow=none;startFill=0;endArrow=classic;endFill=1;strokeWidth=1;" edge="1" parent="1" source="OMftC91fWA-DbwsZ1LiL-35">
          <mxGeometry relative="1" as="geometry">
            <mxPoint x="183" y="73" as="targetPoint" />
          </mxGeometry>
        </mxCell>
        <mxCell id="OMftC91fWA-DbwsZ1LiL-35" value="diff配置" style="rounded=1;whiteSpace=wrap;html=1;" vertex="1" parent="1">
          <mxGeometry x="63" y="43" width="79" height="60" as="geometry" />
        </mxCell>
        <mxCell id="OMftC91fWA-DbwsZ1LiL-38" style="edgeStyle=orthogonalEdgeStyle;curved=1;rounded=0;orthogonalLoop=1;jettySize=auto;html=1;exitX=1;exitY=0.5;exitDx=0;exitDy=0;dashed=1;startArrow=none;startFill=0;endArrow=classic;endFill=1;strokeWidth=1;" edge="1" parent="1" source="OMftC91fWA-DbwsZ1LiL-37">
          <mxGeometry relative="1" as="geometry">
            <mxPoint x="358" y="73" as="targetPoint" />
          </mxGeometry>
        </mxCell>
        <mxCell id="OMftC91fWA-DbwsZ1LiL-37" value="需要reload的component" style="rounded=1;whiteSpace=wrap;html=1;" vertex="1" parent="1">
          <mxGeometry x="184" y="43" width="120" height="60" as="geometry" />
        </mxCell>
        <mxCell id="OMftC91fWA-DbwsZ1LiL-45" style="edgeStyle=orthogonalEdgeStyle;curved=1;rounded=0;orthogonalLoop=1;jettySize=auto;html=1;dashed=1;startArrow=none;startFill=0;endArrow=classic;endFill=1;strokeWidth=1;" edge="1" parent="1" source="OMftC91fWA-DbwsZ1LiL-43" target="OMftC91fWA-DbwsZ1LiL-44">
          <mxGeometry relative="1" as="geometry" />
        </mxCell>
        <mxCell id="OMftC91fWA-DbwsZ1LiL-43" value="validate" style="rounded=1;whiteSpace=wrap;html=1;fillColor=#d5e8d4;strokeColor=#82b366;" vertex="1" parent="1">
          <mxGeometry x="358" y="53" width="80" height="40" as="geometry" />
        </mxCell>
        <mxCell id="OMftC91fWA-DbwsZ1LiL-47" style="edgeStyle=orthogonalEdgeStyle;curved=1;rounded=0;orthogonalLoop=1;jettySize=auto;html=1;exitX=1;exitY=0.5;exitDx=0;exitDy=0;dashed=1;startArrow=none;startFill=0;endArrow=classic;endFill=1;strokeWidth=1;" edge="1" parent="1" source="OMftC91fWA-DbwsZ1LiL-44">
          <mxGeometry relative="1" as="geometry">
            <mxPoint x="611" y="73" as="targetPoint" />
          </mxGeometry>
        </mxCell>
        <mxCell id="OMftC91fWA-DbwsZ1LiL-44" value="Stop" style="rounded=1;whiteSpace=wrap;html=1;fillColor=#dae8fc;strokeColor=#6c8ebf;" vertex="1" parent="1">
          <mxGeometry x="476" y="48" width="100" height="50" as="geometry" />
        </mxCell>
      </root>
    </mxGraphModel>
  </diagram>
</mxfile>
